<svg width="8" height="12" viewBox="0 0 8 12" fill="#D1D1D1" xmlns="http://www.w3.org/2000/svg">
    <path d="M6.56353 5.48731L2.23165 1.15551C2.13146 1.05524 1.99772 1 1.85511 1C1.7125 1 1.57875 1.05524 1.47856 1.15551L1.15955 1.47444C0.951962 1.68226 0.951962 2.02003 1.15955 2.22754L4.79713 5.86512L1.15551 9.50674C1.05532 9.60701 0.999998 9.74067 0.999998 9.88321C0.999998 10.0259 1.05532 10.1596 1.15551 10.2599L1.47452 10.5788C1.57479 10.679 1.70846 10.7343 1.85107 10.7343C1.99368 10.7343 2.12742 10.679 2.22761 10.5788L6.56353 6.24301C6.66396 6.14243 6.71912 6.00813 6.7188 5.86536C6.71912 5.72204 6.66396 5.58781 6.56353 5.48731Z"/>
</svg>