<svg width="16" fill="white" height="16" viewBox="0 0 18 18" xmlns="http://www.w3.org/2000/svg">
    <path d="M9 18L9 16C7.61553 16 6.26215 15.5895 5.11101 14.8203C3.95986 14.0511 3.06266 12.9579 2.53284 11.6788C2.00303 10.3997 1.86441 8.99224 2.1345 7.63437C2.4046 6.2765 3.07128 5.02922 4.05025 4.05025C5.02922 3.07129 6.2765 2.4046 7.63437 2.1345C8.99223 1.86441 10.3997 2.00303 11.6788 2.53284C12.9579 3.06266 14.0511 3.95986 14.8203 5.11101C15.5895 6.26215 16 7.61553 16 9L18 9C18 7.21997 17.4722 5.47991 16.4832 3.99987C15.4943 2.51983 14.0887 1.36627 12.4441 0.685084C10.7996 0.00389544 8.99001 -0.174335 7.24419 0.172933C5.49836 0.5202 3.89471 1.37737 2.63604 2.63604C1.37737 3.89471 0.520198 5.49836 0.172931 7.24419C-0.174336 8.99002 0.00389418 10.7996 0.685083 12.4442C1.36627 14.0887 2.51982 15.4943 3.99987 16.4832C5.47991 17.4722 7.21997 18 9 18Z"/>
</svg>
