<svg width="50" height="50" viewBox="0 0 50 50" fill="none" xmlns="http://www.w3.org/2000/svg">
<path fill-rule="evenodd" clip-rule="evenodd" d="M35.6063 39.7646C34.2563 41.0896 32.675 42.125 30.8604 42.8792C29.0458 43.6271 27.0729 44.0021 24.9458 44.0021C22.8167 44.0021 20.8458 43.6271 19.0333 42.8792C17.2167 42.125 15.6333 41.0896 14.2833 39.7646C12.9333 38.4437 11.875 36.8813 11.1125 35.0792C10.375 33.3396 9.99583 31.4583 9.96875 29.4396H13.5583C13.5958 30.0604 13.7292 30.6417 13.9604 31.1875C14.2375 31.8438 14.6229 32.4104 15.1104 32.8896C15.6 33.3708 16.1771 33.7479 16.8354 34.0167C17.4938 34.2917 18.2104 34.4292 18.9833 34.4292C19.7562 34.4292 20.4688 34.2917 21.1292 34.0167C21.7875 33.7479 22.3646 33.3708 22.8542 32.8896C23.3437 32.4104 23.7292 31.8438 24.0042 31.1875C24.1896 30.7563 24.3104 30.2979 24.3708 29.8187H25.5208C25.5813 30.2979 25.7021 30.7563 25.8875 31.1875C26.1667 31.8438 26.5479 32.4104 27.0396 32.8896C27.5271 33.3708 28.1042 33.7479 28.7625 34.0167C29.4208 34.2917 30.1375 34.4292 30.9083 34.4292C31.6833 34.4292 32.3979 34.2917 33.0563 34.0167C33.7146 33.7479 34.2917 33.3708 34.7813 32.8896C35.2708 32.4104 35.6563 31.8438 35.9333 31.1875C36.1646 30.6417 36.2979 30.0604 36.3375 29.4396H39.9188C39.8979 31.4583 39.5167 33.3396 38.7792 35.0792C38.0146 36.8813 36.9563 38.4437 35.6063 39.7646ZM22.2125 29.0625C22.2125 29.5167 22.1292 29.9375 21.9667 30.3271C21.8021 30.7125 21.575 31.0479 21.2813 31.3354C20.9875 31.6229 20.6479 31.8458 20.2583 32.0063C19.8646 32.1688 19.4417 32.25 18.9833 32.25C18.5229 32.25 18.0979 32.1688 17.7063 32.0063C17.3167 31.8458 16.975 31.6229 16.6833 31.3354C16.3896 31.0479 16.1625 30.7125 16 30.3271C15.8354 29.9375 15.7521 29.5167 15.7521 29.0625C15.7521 28.6125 15.8354 28.1896 16 27.8C16.1625 27.4125 16.3896 27.0771 16.6833 26.7896C16.975 26.5063 17.3167 26.2813 17.7063 26.1208C18.0979 25.9583 18.5229 25.8771 18.9833 25.8771C19.4417 25.8771 19.8646 25.9583 20.2583 26.1208C20.6479 26.2813 20.9875 26.5063 21.2813 26.7896C21.575 27.0771 21.8021 27.4125 21.9667 27.8C22.1292 28.1896 22.2125 28.6125 22.2125 29.0625ZM34.1396 29.0625C34.1396 29.5167 34.0583 29.9375 33.8917 30.3271C33.7292 30.7125 33.5 31.0479 33.2104 31.3354C32.9188 31.6229 32.575 31.8458 32.1833 32.0063C31.7938 32.1688 31.3688 32.25 30.9083 32.25C30.45 32.25 30.025 32.1688 29.6354 32.0063C29.2417 31.8458 28.9 31.6229 28.6104 31.3354C28.3188 31.0479 28.0917 30.7125 27.925 30.3271C27.7604 29.9375 27.6792 29.5167 27.6792 29.0625C27.6792 28.6125 27.7604 28.1896 27.925 27.8C28.0917 27.4125 28.3188 27.0771 28.6104 26.7896C28.9 26.5063 29.2417 26.2813 29.6354 26.1208C30.025 25.9583 30.45 25.8771 30.9083 25.8771C31.3688 25.8771 31.7938 25.9583 32.1833 26.1208C32.575 26.2813 32.9188 26.5063 33.2104 26.7896C33.5 27.0771 33.7292 27.4125 33.8917 27.8C34.0583 28.1896 34.1396 28.6125 34.1396 29.0625ZM11.3021 22.9813C13.85 22.1417 17.2292 21.0708 17.2292 21.0708C24.6625 18.7062 25.6583 15.9104 25.6583 15.9104C25.6583 15.9104 27.2229 18.7062 32.6188 20.55C32.6188 20.55 35.6 21.5313 38.3729 22.5333C38.5125 22.8083 38.6563 23.0833 38.7792 23.375C39.2667 24.525 39.5979 25.7375 39.7729 27.0062H35.9583L35.9333 26.9396C35.6563 26.2833 35.2708 25.7187 34.7813 25.2375C34.2917 24.7562 33.7146 24.3792 33.0563 24.1063C32.3979 23.8354 31.6833 23.7 30.9083 23.7C30.1375 23.7 29.4208 23.8354 28.7625 24.1063C28.1042 24.3792 27.5271 24.7562 27.0396 25.2375C26.5479 25.7187 26.1667 26.2833 25.8875 26.9396C25.8 27.1458 25.7271 27.3563 25.6667 27.5708H24.225C24.1667 27.3563 24.0938 27.1458 24.0042 26.9396C23.7292 26.2833 23.3437 25.7187 22.8542 25.2375C22.3646 24.7562 21.7875 24.3792 21.1292 24.1063C20.4688 23.8354 19.7562 23.7 18.9833 23.7C18.2104 23.7 17.4938 23.8354 16.8354 24.1063C16.1771 24.3792 15.6 24.7562 15.1104 25.2375C14.6229 25.7187 14.2375 26.2833 13.9604 26.9396C13.95 26.9604 13.9438 26.9833 13.9333 27.0062H10.1208C10.2958 25.7375 10.625 24.525 11.1125 23.375C11.1708 23.2396 11.2417 23.1146 11.3021 22.9813ZM46.0604 15.7C44.8917 12.9521 43.2813 10.5688 41.2167 8.55C39.1563 6.52708 36.7417 4.94583 33.9729 3.80208C31.2021 2.65625 28.1938 2.08333 24.9458 2.08333C21.6979 2.08333 18.6896 2.65625 15.9188 3.80208C13.15 4.94583 10.7333 6.52708 8.67292 8.55C6.6125 10.5688 4.99792 12.9521 3.83333 15.7C2.66458 18.45 2.08333 21.4292 2.08333 24.6333C2.08333 27.8417 2.66458 30.8167 3.83333 33.5667C4.99792 36.3167 6.6125 38.6979 8.67292 40.7188C10.7333 42.7396 13.15 44.3208 15.9188 45.4667C18.6896 46.6104 21.6979 47.1833 24.9458 47.1833C28.1938 47.1833 31.2021 46.6104 33.9729 45.4667C36.7417 44.3208 39.1563 42.7396 41.2167 40.7188C43.2813 38.6979 44.8917 36.3167 46.0604 33.5667C47.2229 30.8167 47.8063 27.8417 47.8063 24.6333C47.8063 21.4292 47.2229 18.45 46.0604 15.7Z" fill="white"/>
</svg>
