<svg width="24" height="24" viewBox="0 0 24 24" fill="#D1D1D1" xmlns="http://www.w3.org/2000/svg">
    <path d="M4.7814 20.0001C4.62686 20.0002 4.47578 19.9544 4.34728 19.8685C4.21878 19.7827 4.11862 19.6607 4.05948 19.5179C4.00033 19.3751 3.98486 19.218 4.01502 19.0664C4.04518 18.9149 4.11961 18.7756 4.2289 18.6664L18.6664 4.22885C18.813 4.08232 19.0117 4 19.2189 4C19.4262 4 19.6249 4.08232 19.7714 4.22885C19.918 4.37539 20.0003 4.57413 20.0003 4.78135C20.0003 4.98858 19.918 5.18732 19.7714 5.33386L5.3339 19.7714C5.26141 19.844 5.17529 19.9016 5.08047 19.9409C4.98565 19.9801 4.88402 20.0003 4.7814 20.0001Z"/>
    <path d="M19.2191 20.0001C19.1165 20.0003 19.0149 19.9801 18.9201 19.9409C18.8252 19.9016 18.7391 19.844 18.6666 19.7714L4.2291 5.33386C4.08257 5.18732 4.00024 4.98858 4.00024 4.78135C4.00024 4.57413 4.08257 4.37539 4.2291 4.22885C4.37563 4.08232 4.57437 4 4.7816 4C4.98883 4 5.18757 4.08232 5.3341 4.22885L19.7716 18.6664C19.8809 18.7756 19.9554 18.9149 19.9855 19.0664C20.0157 19.218 20.0002 19.3751 19.9411 19.5179C19.8819 19.6607 19.7818 19.7827 19.6532 19.8685C19.5247 19.9544 19.3737 20.0002 19.2191 20.0001Z"/>
</svg>